<svg width="292" height="35" xmlns="http://www.w3.org/2000/svg"><g fill="none" fill-rule="evenodd"><path d="M10.653 22.415c2.098 0 4.012-1.045 5.116-2.202v-7.466c-1.067-1.158-2.981-2.278-5.116-2.278-3.865 0-6.331 2.613-6.331 6.01 0 3.36 2.466 5.936 6.33 5.936M9.623 7.072c2.724 0 4.785.933 6.147 2.315v-1.98h3.827v17.435c0 6.234-3.938 9.483-9.311 9.483-3.79 0-6.073-1.382-7.288-2.017l.847-3.472c1.214.784 3.46 2.054 6.44 2.054 2.909 0 5.485-1.493 5.485-5.263v-2.092c-1.399 1.307-3.534 2.278-6.147 2.278-5.52 0-9.201-4.219-9.201-9.333 0-5.189 3.68-9.408 9.2-9.408" fill="#15573F"/><path d="M10.653 22.415c2.098 0 4.012-1.045 5.116-2.202v-7.466c-1.067-1.158-2.981-2.278-5.116-2.278-3.865 0-6.331 2.613-6.331 6.01 0 3.36 2.466 5.936 6.33 5.936zM9.622 7.072c2.724 0 4.785.933 6.147 2.315v-1.98h3.827v17.435c0 6.234-3.938 9.483-9.311 9.483-3.79 0-6.073-1.382-7.288-2.017l.847-3.472c1.214.784 3.46 2.054 6.44 2.054 2.909 0 5.485-1.493 5.485-5.263v-2.092c-1.399 1.307-3.534 2.278-6.147 2.278-5.52 0-9.201-4.219-9.201-9.333 0-5.189 3.68-9.408 9.2-9.408z" stroke="#15573F" stroke-width=".84"/><path d="M30.486 12.597c0-1.343-.332-2.202-1.546-2.202-.773 0-1.583.335-2.061.634l-.258-3.023c.406-.374 2.061-.934 3.754-.934 2.209 0 3.497 1.083 3.828 3.36.994-2.053 2.429-3.36 5.006-3.36 1.803 0 3.091.671 3.496 1.344l-.7 3.434c-.404-.634-1.656-1.194-3.349-1.194-2.723 0-3.827 2.538-4.343 5.152v11.125h-3.827V12.597z" fill="#15573F"/><path d="M30.486 12.597c0-1.343-.332-2.202-1.546-2.202-.773 0-1.583.335-2.061.634l-.258-3.023c.406-.374 2.061-.934 3.754-.934 2.209 0 3.497 1.083 3.828 3.36.994-2.053 2.429-3.36 5.006-3.36 1.803 0 3.091.671 3.496 1.344l-.7 3.434c-.404-.634-1.656-1.194-3.349-1.194-2.723 0-3.827 2.538-4.343 5.152v11.125h-3.827V12.597z" stroke="#15573F" stroke-width=".84"/><path d="M62.908 14.39c0-2.24-1.509-4.257-4.969-4.257-3.606 0-5.705 2.464-5.999 5.302h10.894a9.24 9.24 0 00.074-1.045zm3.423 10.414c-1.987 1.644-4.748 2.652-7.987 2.652-7.25 0-10.416-4.554-10.416-10.23 0-5.748 3.901-10.34 10.085-10.34 5.852 0 8.576 3.658 8.576 8.138 0 1.158-.185 2.726-.405 3.435H51.866c.368 3.397 2.393 5.711 6.588 5.711 2.65 0 4.895-1.046 6.368-2.165l1.509 2.8z" fill="#15573F"/><path d="M62.908 14.39c0-2.24-1.509-4.257-4.969-4.257-3.606 0-5.705 2.464-5.999 5.302h10.894a9.24 9.24 0 00.074-1.045zm3.423 10.414c-1.987 1.644-4.748 2.652-7.987 2.652-7.25 0-10.416-4.554-10.416-10.23 0-5.748 3.901-10.34 10.085-10.34 5.852 0 8.576 3.658 8.576 8.138 0 1.158-.185 2.726-.405 3.435H51.866c.368 3.397 2.393 5.711 6.588 5.711 2.65 0 4.895-1.046 6.368-2.165l1.509 2.8z" stroke="#15573F" stroke-width=".84"/><path d="M88.336 14.39c0-2.24-1.51-4.257-4.97-4.257-3.605 0-5.704 2.464-5.998 5.302h10.894a9.24 9.24 0 00.074-1.045zm3.423 10.414c-1.987 1.644-4.749 2.652-7.987 2.652-7.25 0-10.416-4.554-10.416-10.23 0-5.748 3.9-10.34 10.085-10.34 5.852 0 8.575 3.658 8.575 8.138 0 1.158-.184 2.726-.405 3.435H77.294c.368 3.397 2.393 5.711 6.588 5.711 2.65 0 4.895-1.046 6.368-2.165l1.509 2.8z" fill="#15573F"/><path d="M88.336 14.39c0-2.24-1.51-4.257-4.97-4.257-3.605 0-5.704 2.464-5.998 5.302h10.894a9.24 9.24 0 00.074-1.045zm3.423 10.414c-1.987 1.644-4.749 2.652-7.987 2.652-7.25 0-10.416-4.554-10.416-10.23 0-5.748 3.9-10.34 10.085-10.34 5.852 0 8.575 3.658 8.575 8.138 0 1.158-.184 2.726-.405 3.435H77.294c.368 3.397 2.393 5.711 6.588 5.711 2.65 0 4.895-1.046 6.368-2.165l1.509 2.8z" stroke="#15573F" stroke-width=".84"/><path d="M103.973 7.408v2.987c1.362-2.016 3.644-3.324 6.625-3.324 4.969 0 7.251 3.771 7.251 8.625v6.085c0 1.307.368 2.202 1.546 2.202.662 0 1.36-.26 2.024-.672l.258 3.1c-.884.484-2.282.896-3.718.896-2.613 0-3.938-1.457-3.938-4.667v-6.347c0-3.322-1.583-5.637-4.748-5.637-2.724 0-4.637 2.09-5.3 4.219v12.058h-3.827V7.408h3.827z" fill="#15573F"/><path d="M103.973 7.408v2.987c1.362-2.016 3.644-3.324 6.625-3.324 4.969 0 7.251 3.771 7.251 8.625v6.085c0 1.307.368 2.202 1.546 2.202.662 0 1.36-.26 2.024-.672l.258 3.1c-.884.484-2.282.896-3.718.896-2.613 0-3.938-1.457-3.938-4.667v-6.347c0-3.322-1.583-5.637-4.748-5.637-2.724 0-4.637 2.09-5.3 4.219v12.058h-3.827V7.408h3.827z" stroke="#15573F" stroke-width=".84"/><path d="M145.704 2.443v4.964h7.508v3.062h-7.508v9.707c0 2.538 1.104 3.734 3.09 3.734 1.474 0 3.203-.71 4.27-1.494l1.252 3.023c-1.73 1.083-4.012 1.867-6.662 1.867-3.57 0-5.778-2.202-5.778-6.384V10.469h-3.607V7.407h3.607l.442-4.964h3.386z" fill="#1A825A"/><path d="M145.704 2.443v4.964h7.508v3.062h-7.508v9.707c0 2.538 1.104 3.734 3.09 3.734 1.474 0 3.203-.71 4.27-1.494l1.252 3.023c-1.73 1.083-4.012 1.867-6.662 1.867-3.57 0-5.778-2.202-5.778-6.384V10.469h-3.607V7.407h3.607l.442-4.964h3.386z" stroke="#1A825A" stroke-width=".84"/><path d="M165.28.427v9.93c1.362-2.053 3.644-3.285 6.625-3.285 4.969 0 7.251 3.77 7.251 8.624v6.085c0 1.307.368 2.203 1.546 2.203.662 0 1.288-.262 2.024-.672l.258 3.098c-.847.485-2.246.896-3.718.896-2.613 0-3.938-1.456-3.938-4.666v-6.347c0-3.323-1.583-5.638-4.748-5.638-2.724 0-4.637 2.092-5.3 4.22v12.058h-3.827V.427h3.827z" fill="#1A825A"/><path d="M165.28.427v9.93c1.362-2.053 3.644-3.285 6.625-3.285 4.969 0 7.251 3.77 7.251 8.624v6.085c0 1.307.368 2.203 1.546 2.203.662 0 1.288-.262 2.024-.672l.258 3.098c-.847.485-2.246.896-3.718.896-2.613 0-3.938-1.456-3.938-4.666v-6.347c0-3.323-1.583-5.638-4.748-5.638-2.724 0-4.637 2.092-5.3 4.22v12.058h-3.827V.427h3.827z" stroke="#1A825A" stroke-width=".84"/><path d="M207.086 7.408V21.78c0 1.307.332 2.202 1.51 2.202.699 0 1.361-.26 2.06-.672l.295 3.1c-.884.484-2.356.896-3.755.896-2.098 0-3.35-.934-3.791-2.95-1.435 1.904-3.79 2.95-6.772 2.95-4.969 0-7.213-3.473-7.213-8.587V7.408h3.827V18.16c0 3.583 1.251 5.562 4.748 5.562 2.76 0 4.49-1.754 5.264-3.472V7.408h3.827z" fill="#1A825A"/><path d="M207.086 7.408V21.78c0 1.307.332 2.202 1.51 2.202.699 0 1.361-.26 2.06-.672l.295 3.1c-.884.484-2.356.896-3.755.896-2.098 0-3.35-.934-3.791-2.95-1.435 1.904-3.79 2.95-6.772 2.95-4.969 0-7.213-3.473-7.213-8.587V7.408h3.827V18.16c0 3.583 1.251 5.562 4.748 5.562 2.76 0 4.49-1.754 5.264-3.472V7.408h3.827z" stroke="#1A825A" stroke-width=".84"/><path d="M221.803 7.408v2.912c1.325-1.978 3.496-3.285 6.441-3.285 3.46 0 5.447 1.381 6.404 4.07 1.215-2.316 3.607-4.034 6.993-4.034 4.97 0 7.03 3.771 7.03 8.625v6.085c0 1.307.368 2.202 1.51 2.202.662 0 1.361-.26 2.06-.672l.295 3.1c-.847.484-2.393.896-3.755.896-2.576 0-3.937-1.457-3.937-4.667v-6.347c0-3.322-1.436-5.637-4.6-5.637-2.651 0-4.344 1.904-4.97 4.032v12.245h-3.827V16.256c0-3.322-1.4-5.6-4.564-5.6-2.724 0-4.417 1.941-5.08 4.07v12.207h-3.827V7.408h3.827z" fill="#1A825A"/><path d="M221.803 7.408v2.912c1.325-1.978 3.496-3.285 6.441-3.285 3.46 0 5.447 1.381 6.404 4.07 1.215-2.316 3.607-4.034 6.993-4.034 4.97 0 7.03 3.771 7.03 8.625v6.085c0 1.307.368 2.202 1.51 2.202.662 0 1.361-.26 2.06-.672l.295 3.1c-.847.484-2.393.896-3.755.896-2.576 0-3.937-1.457-3.937-4.667v-6.347c0-3.322-1.436-5.637-4.6-5.637-2.651 0-4.344 1.904-4.97 4.032v12.245h-3.827V16.256c0-3.322-1.4-5.6-4.564-5.6-2.724 0-4.417 1.941-5.08 4.07v12.207h-3.827V7.408h3.827z" stroke="#1A825A" stroke-width=".84"/><path d="M268.208 10.469c-2.136 0-4.05 1.12-5.154 2.278v8.96c1.031 1.082 2.982 2.202 5.154 2.202 3.827 0 6.33-2.762 6.33-6.758 0-3.957-2.503-6.682-6.33-6.682m1.03 16.838c-2.76 0-4.821-1.009-6.184-2.465v2.09h-3.827V.428h3.827v8.997c1.4-1.381 3.534-2.352 6.184-2.352 5.52 0 9.238 4.182 9.238 10.08s-3.717 10.155-9.238 10.155" fill="#1A825A"/><path d="M268.208 10.469c-2.136 0-4.05 1.12-5.154 2.278v8.96c1.031 1.082 2.982 2.202 5.154 2.202 3.827 0 6.33-2.762 6.33-6.758 0-3.957-2.503-6.682-6.33-6.682zm1.03 16.838c-2.76 0-4.821-1.009-6.184-2.465v2.09h-3.827V.428h3.827v8.997c1.4-1.381 3.534-2.352 6.184-2.352 5.52 0 9.238 4.182 9.238 10.08s-3.717 10.155-9.238 10.155z" stroke="#1A825A" stroke-width=".84"/><path d="M288.371 22.154c1.657 0 2.614.934 2.614 2.614 0 1.717-.957 2.612-2.614 2.612-1.656 0-2.576-.895-2.576-2.612 0-1.68.92-2.614 2.576-2.614" fill="#1A825A"/><path d="M288.371 22.154c1.657 0 2.614.934 2.614 2.614 0 1.717-.957 2.612-2.614 2.612-1.656 0-2.576-.895-2.576-2.612 0-1.68.92-2.614 2.576-2.614z" stroke="#1A825A" stroke-width=".84"/></g></svg>