<svg width="70" height="70" viewBox="0 0 70 70" xmlns="http://www.w3.org/2000/svg"><path d="M35.886 57.595V70h-1.772V57.595h1.772zm16.604-8.13l8.771 8.771-1.253 1.253-8.771-8.771 1.253-1.253zm-34.094 0l1.253 1.253-8.771 8.771-1.253-1.253 8.771-8.771zM35 15.949c10.016 0 18.165 8.149 18.165 18.165S45.016 52.278 35 52.278 16.835 44.13 16.835 34.114c0-10.016 8.149-18.165 18.165-18.165zm0 1.773c-9.039 0-16.392 7.353-16.392 16.392S25.96 50.506 35 50.506s16.392-7.353 16.392-16.392S44.04 17.722 35 17.722zM12.405 34.114v1.772H0v-1.772h12.405zm57.595 0v1.772H57.595v-1.772H70zM11.764 8.739l8.771 8.771-1.252 1.253-8.772-8.77 1.253-1.254zm47.358 0l1.253 1.253-8.771 8.771-1.253-1.253 8.77-8.77zM35.886 0v12.405h-1.772V0h1.772z" fill="#FFFFFF" fill-rule="evenodd"/></svg>