<svg width="67" height="67" viewBox="0 0 67 67" xmlns="http://www.w3.org/2000/svg"><path d="M34.348 48.766V67h-1.696V48.766h1.696zm12.473-4.84L58.636 55.74l-1.2 1.2-11.814-11.815 1.199-1.2zm-26.642.848l1.2 1.199L10.411 56.94l-1.2-1.2L20.18 44.774zM33.5 19.93c7.015 0 12.722 5.707 12.722 12.722S40.515 45.373 33.5 45.373s-12.722-5.706-12.722-12.721S26.485 19.93 33.5 19.93zm0 1.697c-6.08 0-11.025 4.946-11.025 11.025 0 6.08 4.946 11.025 11.025 11.025 6.08 0 11.025-4.946 11.025-11.025 0-6.08-4.946-11.025-11.025-11.025zM16.538 32.652v1.696H0v-1.696h16.538zm50.462 0v1.696H49.614v-1.696H67zM56.589 8.364l1.199 1.2-11.815 11.814-1.2-1.2L56.59 8.365zm-45.33 0l11.391 11.39-1.199 1.2-11.39-11.39 1.198-1.2zM34.35 0v16.538h-1.697V0h1.696z" fill="#FFFFFF" fill-rule="evenodd"/></svg>