<svg width="57" height="57" viewBox="0 0 57 57" xmlns="http://www.w3.org/2000/svg"><path d="M4.705 12.596l1.665 1.108A26.073 26.073 0 002 28.196c0 14.445 11.752 26.196 26.196 26.196 5.47 0 10.71-1.668 15.154-4.825l1.158 1.631a28.01 28.01 0 01-16.312 5.194C12.649 56.392 0 43.744 0 28.196a28.07 28.07 0 014.705-15.6zM2.595 1.182L55.21 53.796a.999.999 0 11-1.414 1.414L1.182 2.596a.999.999 0 111.414-1.414zM28.196 0c15.548 0 28.197 12.649 28.197 28.197a28.03 28.03 0 01-4.964 15.982l-1.646-1.135a26.047 26.047 0 004.61-14.847C54.392 13.752 42.64 2 28.196 2a26.13 26.13 0 00-13.742 3.89l-1.051-1.702A28.14 28.14 0 0128.196 0z" fill="#FFFFFF" fill-rule="evenodd"/></svg>