<svg width="94" height="70" xmlns="http://www.w3.org/2000/svg"><path d="M67.267 59.656c.38.36.394.959.033 1.336-5.494 5.746-12.905 8.91-20.867 8.91-7.697 0-14.934-2.986-20.377-8.41a.942.942 0 010-1.337.953.953 0 011.343 0c5.085 5.066 11.844 7.855 19.034 7.855 7.437 0 14.36-2.956 19.492-8.322a.951.951 0 011.342-.032zm8.138-50.899C79.779 12.436 84.1 22.13 88.28 31.504c.653 1.466 1.302 2.92 1.943 4.338 3.235 7.135 3.942 12.662 2.16 16.895-2.151 5.117-7.656 7.498-12.647 9.329a7.361 7.361 0 01-2.534.455 7.244 7.244 0 01-4.146-1.316 7.296 7.296 0 01-3.137-5.986V11.49c0-1.342.805-2.581 2.05-3.158 1.164-.539 2.48-.375 3.435.425zM21.37 8.332c1.245.577 2.049 1.816 2.049 3.158v43.73a7.296 7.296 0 01-3.136 5.985 7.242 7.242 0 01-4.147 1.316c-.848 0-1.702-.15-2.534-.455-4.99-1.831-10.496-4.212-12.647-9.329-1.781-4.233-1.075-9.76 2.16-16.895.642-1.418 1.29-2.872 1.944-4.338 4.18-9.375 8.501-19.068 12.876-22.747.953-.8 2.268-.964 3.435-.425zm52.016 1.576a1.51 1.51 0 00-.616.14c-.439.203-.95.703-.95 1.442v43.73c0 1.79.846 3.407 2.323 4.433a5.333 5.333 0 004.938.637c4.827-1.77 9.695-3.868 11.553-8.283 1.565-3.723.866-8.757-2.14-15.388a682.812 682.812 0 01-1.949-4.347C82.453 23.093 78.221 13.6 74.18 10.204a1.205 1.205 0 00-.794-.296zm-53.433 0c-.246 0-.526.07-.793.296-4.041 3.396-8.273 12.889-12.366 22.068a741.264 741.264 0 01-1.948 4.347C1.84 43.25 1.14 48.284 2.706 52.007c1.857 4.415 6.725 6.513 11.552 8.283a5.333 5.333 0 004.939-.637 5.333 5.333 0 002.323-4.434V11.49c0-.739-.512-1.24-.95-1.442a1.51 1.51 0 00-.617-.14zM46.67 44.997c3.645 0 6.6 1.963 6.6 4.384 0 2.421-2.955 4.384-6.6 4.384-3.646 0-6.6-1.963-6.6-4.384 0-2.421 2.954-4.384 6.6-4.384zm-13.934-12.42c1.216 0 2.2.981 2.2 2.192 0 1.21-.984 2.19-2.2 2.19-1.215 0-2.2-.98-2.2-2.19s.985-2.192 2.2-2.192zm27.868 0c1.214 0 2.2.981 2.2 2.192 0 1.21-.986 2.19-2.2 2.19-1.216 0-2.2-.98-2.2-2.19s.984-2.192 2.2-2.192zM46.907.947c7.698 0 14.934 2.985 20.376 8.407a.942.942 0 010 1.337.95.95 0 01-1.342 0c-5.084-5.064-11.844-7.853-19.034-7.853-7.437 0-14.36 2.956-19.492 8.322a.947.947 0 01-1.343.033.942.942 0 01-.032-1.337C31.534 4.11 38.944.946 46.907.946z" fill="#FFF" fill-rule="evenodd"/></svg>