<svg width="104" height="70" viewBox="0 0 104 70" xmlns="http://www.w3.org/2000/svg"><path d="M52.18.254c1.185 1.054 29.039 25.982 29.039 41.368C81.219 57.27 67.889 70 51.505 70c-.912 0-1.839-.04-2.75-.12-.546-.048-.947-.508-.896-1.028.05-.52.529-.904 1.076-.856.852.074 1.717.112 2.57.112 15.292 0 27.733-11.882 27.733-26.486 0-13.293-23.426-35.415-27.734-39.37a177.378 177.378 0 00-6.665 6.46c-.376.38-1.003.4-1.4.044a.915.915 0 01-.046-1.336C47.594 3.135 50.799.282 50.83.254c.38-.339.969-.339 1.35 0zm22.78 0C76.146 1.308 104 26.236 104 41.622 104 57.27 90.67 70 74.286 70c-.913 0-1.839-.04-2.75-.12-.546-.048-.947-.508-.896-1.028.05-.52.526-.904 1.076-.856.852.074 1.717.112 2.57.112 15.292 0 27.733-11.882 27.733-26.486 0-13.293-23.426-35.415-27.734-39.37a177.378 177.378 0 00-6.665 6.46c-.377.38-1.002.4-1.4.044a.915.915 0 01-.046-1.336C70.375 3.135 73.58.282 73.61.254c.38-.339.969-.339 1.35 0zm-44.571 0c1.185 1.054 29.04 25.982 29.04 41.368C59.429 57.269 46.099 70 29.714 70 13.33 70 0 57.27 0 41.622 0 26.236 27.854 1.308 29.04.254c.38-.339.968-.339 1.349 0zm-.675 1.998C25.404 6.21 1.981 28.329 1.981 41.622c0 14.605 12.441 26.486 27.733 26.486s27.734-11.881 27.734-26.486c0-13.293-23.423-35.412-27.734-39.37z" fill="#FFFFFF" fill-rule="evenodd"/></svg>