<svg width="23" height="24" viewBox="0 0 23 24" xmlns="http://www.w3.org/2000/svg"><path d="M13.409 0c5.182 0 9.398 4.216 9.398 9.398v.92c0 3.756-2.217 7.113-5.666 8.616v1.999a2.392 2.392 0 01-2.39 2.389H8.056a2.391 2.391 0 01-2.389-2.389v-2C2.216 17.432 0 14.074 0 10.319v-.92C0 4.216 4.216 0 9.398 0h4.011zm0 .657H9.398c-4.82 0-8.74 3.921-8.74 8.741v.92c0 3.561 2.143 6.738 5.461 8.094.124.05.204.17.204.304v2.217c0 .955.777 1.732 1.732 1.732l.701-.001v-2.238a.328.328 0 11.658 0l-.001 2.238h3.464v-2.238a.328.328 0 11.658 0l-.001 2.238h1.218c.954 0 1.731-.776 1.731-1.731v-2.217c0-.134.081-.254.205-.305 3.318-1.355 5.462-4.532 5.462-8.093v-.92c0-4.82-3.921-8.74-8.741-8.74zM7.025 9.272a2.907 2.907 0 012.904 2.904 2.907 2.907 0 01-2.904 2.904 2.907 2.907 0 01-2.904-2.904 2.907 2.907 0 012.904-2.904zm8.757 0a2.907 2.907 0 012.904 2.904 2.907 2.907 0 01-2.904 2.904 2.907 2.907 0 01-2.904-2.904 2.907 2.907 0 012.904-2.904zm-8.757.657a2.25 2.25 0 00-2.247 2.247 2.25 2.25 0 002.247 2.247 2.25 2.25 0 002.247-2.247A2.25 2.25 0 007.025 9.93zm8.757 0a2.25 2.25 0 00-2.247 2.247 2.25 2.25 0 002.247 2.247 2.25 2.25 0 002.247-2.247 2.25 2.25 0 00-2.247-2.247z" fill="#FFFFFF" fill-rule="evenodd"/></svg>