<svg width="78" height="70" xmlns="http://www.w3.org/2000/svg"><path d="M50.111.254C51.25 1.308 78 26.236 78 41.622 78 57.27 65.198 70 49.463 70c-.876 0-1.765-.04-2.641-.12a.947.947 0 11.174-1.884 27.24 27.24 0 002.467.112c14.686 0 26.635-11.882 26.635-26.486 0-13.293-22.498-35.415-26.636-39.37a173.671 173.671 0 00-6.4 6.46c-.36.38-.963.4-1.345.044a.941.941 0 01-.044-1.336C45.708 3.135 48.785.282 48.816.254a.953.953 0 011.295 0zm-20.927 0c1.139 1.054 27.89 25.982 27.89 41.368C57.073 57.269 44.271 70 28.536 70S0 57.27 0 41.622C0 26.236 26.75 1.308 27.889.254a.953.953 0 011.295 0zm-.647 1.998C24.397 6.21 1.902 28.329 1.902 41.622c0 14.605 11.949 26.486 26.635 26.486 14.685 0 26.634-11.881 26.634-26.486 0-13.293-22.495-35.412-26.634-39.37z" fill="#FFF" fill-rule="evenodd"/></svg>